# xmcd CD database file
#
# Track frame offsets:
#	150
#	28966
#	48935
#	59834
#	72890
#	102234
#	119744
#	140144
#	153179
#	172510
#	190367
#	209114
#
# Disc length: 3033 seconds
#
# Revision: 0
# Processed by: cddbd v1.5.2PL0 Copyright (c) Steve Scherf et al.
# Submitted via: CDex 1.70beta2
#
DISCID=b90bd70c
DTITLE=CHRIS GARRICK and JOHN ETHERIDGE - MEN ON WIRE
DYEAR=2009
DGENRE=Jazz
TTITLE0=Mercy Street
TTITLE1=Msunduza
TTITLE2=Alfie
TTITLE3=Undecided
TTITLE4=Gran Torino
TTITLE5=Blue Moon
TTITLE6=James
TTITLE7=Spring Can Really Hang You Up The Most
TTITLE8=The Little Wonder
TTITLE9=Let's Fall In Love
TTITLE10=Men OFF Wire
TTITLE11=Love Of My Life
EXTD=YEAR: 2009
EXTT0=
EXTT1=
EXTT2=
EXTT3=
EXTT4=
EXTT5=
EXTT6=
EXTT7=
EXTT8=
EXTT9=
EXTT10=
EXTT11=
PLAYORDER=
